<svg width="32" height="32" viewBox="0 0 32 32" fill="none" xmlns="http://www.w3.org/2000/svg">
<g clip-path="url(#clip0_293_81)">
<path d="M28 3.98929V28.0106C27.9972 28.3608 27.8568 28.6958 27.609 28.9433C27.3613 29.1908 27.0262 29.3309 26.676 29.3333H5.324C4.97308 29.3333 4.63652 29.194 4.38826 28.946C4.14 28.698 4.00035 28.3615 4 28.0106V3.98929C4.00279 3.63913 4.14322 3.30413 4.39096 3.05664C4.63869 2.80916 4.97384 2.66907 5.324 2.66663H26.676C27.4067 2.66663 28 3.25863 28 3.98929V3.98929ZM25.3333 5.33329H6.66667V26.6666H25.3333V5.33329ZM15.0573 17.4946L20.7147 11.8386L22.6 13.724L15.0573 21.2666L9.87067 16.08L11.7573 14.1946L15.0573 17.4946V17.4946Z" fill="black"/>
</g>
<defs>
<clipPath id="clip0_293_81">
<rect width="32" height="32" fill="white"/>
</clipPath>
</defs>
</svg>
